<svg xmlns="http://www.w3.org/2000/svg" width="1100" height="620" viewBox="0 0 1100 620"><rect width="1100" height="620" fill="white"/><g font-family="sans-serif" fill="#111"><text x="550" y="45" text-anchor="middle" font-size="28" font-weight="bold">OmniPhenoR 0.3.0 interoperability architecture</text><rect x="390" y="80" width="320" height="70" rx="12" fill="#eef2f7" stroke="#222"/><text x="550" y="123" text-anchor="middle" font-size="24">Public R capability API</text><path d="M550 150 V205" stroke="#222" stroke-width="3"/><rect x="80" y="210" width="250" height="85" rx="12" fill="#f8f8f8" stroke="#333"/><text x="205" y="245" text-anchor="middle" font-size="21">Classical R core</text><text x="205" y="273" text-anchor="middle" font-size="16">RGB • texture • morphology</text><rect x="425" y="210" width="250" height="85" rx="12" fill="#f8f8f8" stroke="#333"/><text x="550" y="245" text-anchor="middle" font-size="21">Native R torch</text><text x="550" y="273" text-anchor="middle" font-size="16">segmentation • classification</text><rect x="770" y="210" width="250" height="85" rx="12" fill="#f8f8f8" stroke="#333"/><text x="895" y="245" text-anchor="middle" font-size="21">Optional backends</text><text x="895" y="273" text-anchor="middle" font-size="16">PlantCV • YOLO • LeafMachine2</text><path d="M550 205 H205 V210 M550 205 V210 M550 205 H895 V210" stroke="#222" stroke-width="3" fill="none"/><rect x="260" y="355" width="580" height="95" rx="12" fill="#eef2f7" stroke="#222"/><text x="550" y="390" text-anchor="middle" font-size="22">Canonical scientific objects</text><text x="550" y="421" text-anchor="middle" font-size="18">pheno_prediction • pheno_detection • pheno_instances</text><path d="M205 295 V335 H550 V355 M550 295 V355 M895 295 V335 H550" stroke="#222" stroke-width="3" fill="none"/><rect x="330" y="500" width="440" height="75" rx="12" fill="#f8f8f8" stroke="#333"/><text x="550" y="532" text-anchor="middle" font-size="20">Traits + experimental identity</text><text x="550" y="558" text-anchor="middle" font-size="16">organ → plant → plot → environment</text><path d="M550 450 V500" stroke="#222" stroke-width="3"/></g></svg>