<svg xmlns="http://www.w3.org/2000/svg" width="1100" height="520" viewBox="0 0 1100 520"><rect width="1100" height="520" fill="white"/><g font-family="sans-serif" fill="#111"><text x="550" y="42" text-anchor="middle" font-size="27" font-weight="bold">Precompiled vignette workflow</text><g fill="#f7f7f7" stroke="#333"><rect x="40" y="110" width="190" height="85" rx="12"/><rect x="290" y="110" width="190" height="85" rx="12"/><rect x="540" y="110" width="190" height="85" rx="12"/><rect x="790" y="110" width="260" height="85" rx="12"/><rect x="315" y="300" width="470" height="95" rx="12"/></g><g text-anchor="middle" font-size="18"><text x="135" y="145">Heavy analysis</text><text x="135" y="171">developer only</text><text x="385" y="145">Frozen compact</text><text x="385" y="171">results + hashes</text><text x="635" y="145">Render Rmd once</text><text x="635" y="171">for release</text><text x="920" y="145">inst/doc HTML</text><text x="920" y="171">committed/distributed</text><text x="550" y="335">User installs with build_vignettes = FALSE</text><text x="550" y="365">All long illustrated vignettes remain available</text></g><g stroke="#222" stroke-width="3" fill="none"><path d="M230 152 H290"/><path d="M480 152 H540"/><path d="M730 152 H790"/><path d="M920 195 V250 H550 V300"/></g></g></svg>